<?xml version="1.0" encoding="utf-8"?>
<svg version="1.1" id="Layer_1" xmlns="http://www.w3.org/2000/svg" xmlns:xlink="http://www.w3.org/1999/xlink" x="0px" y="0px"
	 viewBox="0 0 1110.3 627.3" style="enable-background:new 0 0 1110.3 627.3;" xml:space="preserve">
<style type="text/css">
	.st0{fill:#E99600;}
	.st1{fill:#F2C34E;}
	.st2{fill:#00C0D4;}
	.st3{fill:#FFFFFF;}
</style>
<g>
	<g>
		<polygon class="st0" points="816.8,287.7 691.1,320 794.9,397.8 666.4,379.4 732.5,491.1 620.8,425 639.2,553.5 561.4,449.7 
			529.1,575.4 496.8,449.7 419,553.5 437.3,425 325.6,491.1 391.7,379.4 263.3,397.8 367.1,320 241.4,287.7 367.1,255.4 
			263.3,177.6 391.7,195.9 325.6,84.2 437.4,150.3 419,21.9 496.8,125.7 529.1,0 561.4,125.7 639.2,21.9 620.8,150.3 732.5,84.2 
			666.4,196 794.9,177.6 691.1,255.4 		"/>
	</g>
	<g>
		<circle class="st1" cx="528.7" cy="287.3" r="139.1"/>
	</g>
</g>
<g>
	<path class="st2" d="M301.1,573.3c-11.1,0-21.7-2.5-31.1-7c12.2,9.4,27.6,15,44.1,15c18,0,34.5-6.7,47.1-17.7
		c-4.3-2.5-8.4-5.5-12.1-8.8C336.4,566.3,319.6,573.3,301.1,573.3z"/>
	<path class="st2" d="M157.9,305c-1.7-1-3.5-1.9-5.3-2.8c1.5,1.1,2.9,2.3,4.3,3.6C157.3,305.6,157.6,305.3,157.9,305z"/>
	<path class="st2" d="M205,573.3c-18.5,0-34.5-9-47.2-20.5c-12.7,11.5-30.4,20.5-48.9,20.5c-11,0-21.4-2.5-30.7-6.9
		c12.1,9.3,27.2,14.9,43.7,14.9c18.5,0,35.2-7,47.9-18.5c12.7,11.5,29.7,18.5,48.2,18.5c18.1,0,34.3-6.7,46.9-17.7
		c-4.3-2.5-8.4-5.5-12.1-8.8C240.1,566.3,223.5,573.3,205,573.3z"/>
	<path class="st2" d="M468.7,358.8c0,2.8-0.2,5.6-0.5,8.3c4.6,0.8,9.1,2.1,13.4,3.7c0.1-1.3,0.1-2.7,0.1-4.1
		c0-28.5-16.7-53.1-40.8-64.6C457.7,315.3,468.7,335.8,468.7,358.8z"/>
	<path class="st2" d="M499.5,381c16.9,13.1,27.8,33.6,27.8,56.6c0,35.2-25.4,64.5-58.9,70.4c-3.1,36.6-33.8,65.3-71.2,65.3
		c-11,0-21.4-2.5-30.7-6.9c12.1,9.4,27.3,14.9,43.7,14.9c37.4,0,68.1-28.7,71.2-65.3c33.5-5.9,58.9-35.2,58.9-70.4
		C540.3,417.1,523.6,392.5,499.5,381z"/>
	<path class="st2" d="M254,305c-1.7-1-3.5-1.9-5.3-2.8c1.5,1.1,2.9,2.3,4.3,3.6C253.4,305.6,253.7,305.3,254,305z"/>
	<path class="st2" d="M350.1,305c-1.7-1-3.5-1.9-5.3-2.8c1.5,1.1,2.9,2.3,4.3,3.6C349.4,305.6,349.8,305.3,350.1,305z"/>
	<path class="st3" d="M468.4,508c33.5-5.9,58.9-35.2,58.9-70.4c0-23-10.9-43.5-27.8-56.6c-5.4-4.2-11.5-7.6-18-10.1
		c-4.3-1.7-8.7-2.9-13.4-3.7c0.3-2.7,0.5-5.5,0.5-8.3c0-23-10.9-43.5-27.8-56.6c-12.1-9.4-27.2-15-43.6-15c-18,0-34.5,6.7-47.1,17.7
		c-0.3,0.3-0.6,0.5-0.9,0.8c-1.4-1.3-2.8-2.5-4.3-3.6c-12.2-9.3-27.3-14.9-43.8-14.9c-18,0-34.5,6.7-47.1,17.7
		c-0.3,0.3-0.6,0.5-0.9,0.8c-1.4-1.3-2.8-2.5-4.3-3.6c-12.2-9.3-27.3-14.9-43.8-14.9c-18,0-34.5,6.7-47.1,17.7
		c-0.3,0.3-0.6,0.5-0.9,0.8c-1.4-1.3-2.8-2.5-4.3-3.6c-12.1-9.3-27.3-14.9-43.8-14.9c-39.5,0-71.5,32-71.5,71.5
		c0,5.2,0.6,10.2,1.6,15c-23.1,11.9-39,36-39,63.8c0,27.2,15.1,50.8,37.4,62.9c0,0.5,0,0.9,0,1.4c0,28.5,16.7,53.1,40.8,64.6
		c9.3,4.4,19.7,6.9,30.7,6.9c18.5,0,36.2-9,48.9-20.5c12.7,11.4,28.7,20.4,47.2,20.4s35.1-7,47.8-18.5c3.7,3.3,7.7,6.3,12.1,8.8
		c1.7,1,3.4,1.9,5.1,2.7c9.4,4.5,20,7,31.1,7c18.5,0,35.3-7,48-18.5c3.7,3.3,7.7,6.3,12.1,8.8c1.7,1,3.5,1.9,5.3,2.8
		c9.3,4.4,19.7,6.9,30.7,6.9C434.6,573.3,465.3,544.6,468.4,508z"/>
</g>
<g>
	<path class="st2" d="M871.1,426.3c-11.1,0-21.7-2.5-31.1-7c12.2,9.4,27.6,15,44.1,15c18,0,34.5-6.7,47.1-17.7
		c-4.3-2.5-8.4-5.5-12.1-8.8C906.4,419.3,889.6,426.3,871.1,426.3z"/>
	<path class="st2" d="M727.9,158c-1.7-1-3.5-1.9-5.3-2.8c1.5,1.1,2.9,2.3,4.3,3.6C727.3,158.6,727.6,158.3,727.9,158z"/>
	<path class="st2" d="M775,426.3c-18.5,0-34.5-9-47.2-20.5c-12.7,11.5-30.4,20.5-48.9,20.5c-11,0-21.4-2.5-30.7-6.9
		c12.1,9.3,27.2,14.9,43.7,14.9c18.5,0,35.2-7,47.9-18.5c12.7,11.5,29.7,18.5,48.2,18.5c18.1,0,34.3-6.7,46.9-17.7
		c-4.3-2.5-8.4-5.5-12.1-8.8C810.1,419.3,793.5,426.3,775,426.3z"/>
	<path class="st2" d="M1038.7,211.8c0,2.8-0.2,5.6-0.5,8.3c4.6,0.8,9.1,2.1,13.4,3.7c0.1-1.3,0.1-2.7,0.1-4.1
		c0-28.5-16.7-53.1-40.8-64.6C1027.7,168.3,1038.7,188.8,1038.7,211.8z"/>
	<path class="st2" d="M1069.5,234c16.9,13.1,27.8,33.6,27.8,56.6c0,35.2-25.4,64.5-58.9,70.4c-3.1,36.6-33.8,65.3-71.2,65.3
		c-11,0-21.4-2.5-30.7-6.9c12.1,9.4,27.3,14.9,43.7,14.9c37.4,0,68.1-28.7,71.2-65.3c33.5-5.9,58.9-35.2,58.9-70.4
		C1110.3,270.1,1093.6,245.5,1069.5,234z"/>
	<path class="st2" d="M824,158c-1.7-1-3.5-1.9-5.3-2.8c1.5,1.1,2.9,2.3,4.3,3.6C823.4,158.6,823.7,158.3,824,158z"/>
	<path class="st2" d="M920.1,158c-1.7-1-3.5-1.9-5.3-2.8c1.5,1.1,2.9,2.3,4.3,3.6C919.4,158.6,919.8,158.3,920.1,158z"/>
	<path class="st3" d="M1038.4,361c33.5-5.9,58.9-35.2,58.9-70.4c0-23-10.9-43.5-27.8-56.6c-5.4-4.2-11.5-7.6-18-10.1
		c-4.3-1.7-8.7-2.9-13.4-3.7c0.3-2.7,0.5-5.5,0.5-8.3c0-23-10.9-43.5-27.8-56.6c-12.1-9.4-27.2-15-43.6-15c-18,0-34.5,6.7-47.1,17.7
		c-0.3,0.3-0.6,0.5-0.9,0.8c-1.4-1.3-2.8-2.5-4.3-3.6c-12.2-9.3-27.3-14.9-43.8-14.9c-18,0-34.5,6.7-47.1,17.7
		c-0.3,0.3-0.6,0.5-0.9,0.8c-1.4-1.3-2.8-2.5-4.3-3.6c-12.2-9.3-27.3-14.9-43.8-14.9c-18,0-34.5,6.7-47.1,17.7
		c-0.3,0.3-0.6,0.5-0.9,0.8c-1.4-1.3-2.8-2.5-4.3-3.6c-12.1-9.3-27.3-14.9-43.8-14.9c-39.5,0-71.5,32-71.5,71.5
		c0,5.2,0.6,10.2,1.6,15c-23.1,11.9-39,36-39,63.8c0,27.2,15.1,50.8,37.4,62.9c0,0.5,0,0.9,0,1.4c0,28.5,16.7,53.1,40.8,64.6
		c9.3,4.4,19.7,6.9,30.7,6.9c18.5,0,36.2-9,48.9-20.5c12.7,11.4,28.7,20.4,47.2,20.4s35.1-7,47.8-18.5c3.7,3.3,7.7,6.3,12.1,8.8
		c1.7,1,3.4,1.9,5.1,2.7c9.4,4.5,20,7,31.1,7c18.5,0,35.3-7,48-18.5c3.7,3.3,7.7,6.3,12.1,8.8c1.7,1,3.5,1.9,5.3,2.8
		c9.3,4.4,19.7,6.9,30.7,6.9C1004.6,426.3,1035.3,397.6,1038.4,361z"/>
</g>
<g>
	<path class="st2" d="M653.1,619.3c-11.1,0-21.7-2.5-31.1-7c12.2,9.4,27.6,15,44.1,15c18,0,34.5-6.7,47.1-17.7
		c-4.3-2.5-8.4-5.5-12.1-8.8C688.4,612.3,671.6,619.3,653.1,619.3z"/>
	<path class="st2" d="M509.9,351c-1.7-1-3.5-1.9-5.3-2.8c1.5,1.1,2.9,2.3,4.3,3.6C509.3,351.6,509.6,351.3,509.9,351z"/>
	<path class="st2" d="M557,619.3c-18.5,0-34.5-9-47.2-20.5c-12.7,11.5-30.4,20.5-48.9,20.5c-11,0-21.4-2.5-30.7-6.9
		c12.1,9.3,27.2,14.9,43.7,14.9c18.5,0,35.2-7,47.9-18.5c12.7,11.5,29.7,18.5,48.2,18.5c18.1,0,34.3-6.7,46.9-17.7
		c-4.3-2.5-8.4-5.5-12.1-8.8C592.1,612.3,575.5,619.3,557,619.3z"/>
	<path class="st2" d="M820.7,404.8c0,2.8-0.2,5.6-0.5,8.3c4.6,0.8,9.1,2.1,13.4,3.7c0.1-1.3,0.1-2.7,0.1-4.1
		c0-28.5-16.7-53.1-40.8-64.6C809.7,361.3,820.7,381.8,820.7,404.8z"/>
	<path class="st2" d="M851.5,427c16.9,13.1,27.8,33.6,27.8,56.6c0,35.2-25.4,64.5-58.9,70.4c-3.1,36.6-33.8,65.3-71.2,65.3
		c-11,0-21.4-2.5-30.7-6.9c12.1,9.4,27.3,14.9,43.7,14.9c37.4,0,68.1-28.7,71.2-65.3c33.5-5.9,58.9-35.2,58.9-70.4
		C892.3,463.1,875.6,438.5,851.5,427z"/>
	<path class="st2" d="M606,351c-1.7-1-3.5-1.9-5.3-2.8c1.5,1.1,2.9,2.3,4.3,3.6C605.4,351.6,605.7,351.3,606,351z"/>
	<path class="st2" d="M702.1,351c-1.7-1-3.5-1.9-5.3-2.8c1.5,1.1,2.9,2.3,4.3,3.6C701.4,351.6,701.8,351.3,702.1,351z"/>
	<path class="st2" d="M815.4,552.5c33.5-5.9,58.9-35.2,58.9-70.4c0-23-10.9-43.5-27.8-56.6c-5.4-4.2-11.5-7.6-18-10.1
		c-4.3-1.7-8.7-2.9-13.4-3.7c0.3-2.7,0.5-5.5,0.5-8.3c0-23-10.9-43.5-27.8-56.6c-12.1-9.4-27.2-15-43.6-15c-18,0-34.5,6.7-47.1,17.7
		c-0.3,0.3-0.6,0.5-0.9,0.8c-1.4-1.3-2.8-2.5-4.3-3.6c-12.2-9.3-27.3-14.9-43.8-14.9c-18,0-34.5,6.7-47.1,17.7
		c-0.3,0.3-0.6,0.5-0.9,0.8c-1.4-1.3-2.8-2.5-4.3-3.6c-12.2-9.3-27.3-14.9-43.8-14.9c-18,0-34.5,6.7-47.1,17.7
		c-0.3,0.3-0.6,0.5-0.9,0.8c-1.4-1.3-2.8-2.5-4.3-3.6c-12.1-9.3-27.3-14.9-43.8-14.9c-39.5,0-71.5,32-71.5,71.5
		c0,5.2,0.6,10.2,1.6,15c-23.1,11.9-39,36-39,63.8c0,27.2,15.1,50.8,37.4,62.9c0,0.5,0,0.9,0,1.4c0,28.5,16.7,53.1,40.8,64.6
		c9.3,4.4,19.7,6.9,30.7,6.9c18.5,0,36.2-9,48.9-20.5c12.7,11.4,28.7,20.4,47.2,20.4s35.1-7,47.8-18.5c3.7,3.3,7.7,6.3,12.1,8.8
		c1.7,1,3.4,1.9,5.1,2.7c9.4,4.5,20,7,31.1,7c18.5,0,35.3-7,48-18.5c3.7,3.3,7.7,6.3,12.1,8.8c1.7,1,3.5,1.9,5.3,2.8
		c9.3,4.4,19.7,6.9,30.7,6.9C781.6,617.8,812.3,589.1,815.4,552.5z"/>
	<path class="st3" d="M820.4,554c33.5-5.9,58.9-35.2,58.9-70.4c0-23-10.9-43.5-27.8-56.6c-5.4-4.2-11.5-7.6-18-10.1
		c-4.3-1.7-8.7-2.9-13.4-3.7c0.3-2.7,0.5-5.5,0.5-8.3c0-23-10.9-43.5-27.8-56.6c-12.1-9.4-27.2-15-43.6-15c-18,0-34.5,6.7-47.1,17.7
		c-0.3,0.3-0.6,0.5-0.9,0.8c-1.4-1.3-2.8-2.5-4.3-3.6c-12.2-9.3-27.3-14.9-43.8-14.9c-18,0-34.5,6.7-47.1,17.7
		c-0.3,0.3-0.6,0.5-0.9,0.8c-1.4-1.3-2.8-2.5-4.3-3.6c-12.2-9.3-27.3-14.9-43.8-14.9c-18,0-34.5,6.7-47.1,17.7
		c-0.3,0.3-0.6,0.5-0.9,0.8c-1.4-1.3-2.8-2.5-4.3-3.6c-12.1-9.3-27.3-14.9-43.8-14.9c-39.5,0-71.5,32-71.5,71.5
		c0,5.2,0.6,10.2,1.6,15c-23.1,11.9-39,36-39,63.8c0,27.2,15.1,50.8,37.4,62.9c0,0.5,0,0.9,0,1.4c0,28.5,16.7,53.1,40.8,64.6
		c9.3,4.4,19.7,6.9,30.7,6.9c18.5,0,36.2-9,48.9-20.5c12.7,11.4,28.7,20.4,47.2,20.4s35.1-7,47.8-18.5c3.7,3.3,7.7,6.3,12.1,8.8
		c1.7,1,3.4,1.9,5.1,2.7c9.4,4.5,20,7,31.1,7c18.5,0,35.3-7,48-18.5c3.7,3.3,7.7,6.3,12.1,8.8c1.7,1,3.5,1.9,5.3,2.8
		c9.3,4.4,19.7,6.9,30.7,6.9C786.6,619.3,817.3,590.6,820.4,554z"/>
</g>
</svg>
