<?xml version="1.0" encoding="utf-8"?>
<svg version="1.1" id="Layer_1" xmlns="http://www.w3.org/2000/svg" xmlns:xlink="http://www.w3.org/1999/xlink" x="0px" y="0px"
	 viewBox="0 0 939.1 939.1" style="enable-background:new 0 0 939.1 939.1;" xml:space="preserve">
<style type="text/css">
	.st0{fill:#E99600;}
	.st1{fill:#F2C34E;}
</style>
<g>
	<polygon class="st0" points="939.1,469.5 733.9,522.2 903.4,649.3 693.7,619.2 801.6,801.6 619.2,693.7 649.3,903.4 522.2,733.9 
		469.5,939.1 416.8,733.9 289.8,903.4 319.8,693.7 137.5,801.6 245.3,619.2 35.7,649.3 205.1,522.2 0,469.5 205.1,416.8 35.7,289.8 
		245.3,319.8 137.5,137.5 319.9,245.3 289.8,35.7 416.8,205.1 469.5,0 522.2,205.1 649.3,35.7 619.2,245.3 801.6,137.5 693.7,319.9 
		903.4,289.8 733.9,416.8 	"/>
</g>
<g>
	<circle class="st1" cx="468.9" cy="468.9" r="227"/>
</g>
</svg>
