<svg xmlns="http://www.w3.org/2000/svg" viewBox="0 0 6121 587"><defs><style>.cls-1{stroke:#fff;stroke-miterlimit:10;}</style></defs><title>Asset 1</title><g id="Layer_2" data-name="Layer 2"><g id="Layer_1-2" data-name="Layer 1"><path class="cls-1" d="M6120.5,18.5v568H.5V18.5s24.81,79.6,353,189c258,86,527.75-179.69,713-205,183-25,359,247,573,242,176.54-4.12,181-244,457-244,208,0,426.24,283.6,533,293,159,14,291.75-265.69,477-291,183-25,359,247,573,242,176.54-4.12,270-224,401-226s239,159,353,189c263,69.21,527.75-179.69,713-205,183-25,359,247,573,242C5896,240.38,6120.5,18.5,6120.5,18.5Z"/></g></g></svg>