<?xml version="1.0" encoding="utf-8"?>
<!-- Generator: Adobe Illustrator 23.1.0, SVG Export Plug-In . SVG Version: 6.00 Build 0)  -->
<svg version="1.1" id="Layer_1" xmlns="http://www.w3.org/2000/svg" xmlns:xlink="http://www.w3.org/1999/xlink" x="0px" y="0px"
	 viewBox="0 0 2262.8 607.5" style="enable-background:new 0 0 2262.8 607.5;" xml:space="preserve">
<style type="text/css">
	.st0{fill:#00C0D4;stroke:#000000;stroke-miterlimit:10;}
	.st1{fill:#00C0D4;}
	.st2{fill:#FFFFFF;}
</style>
<path class="st0" d="M2262.3,471.3c0-35.3-25.5-64.6-59.1-70.4c0.3-2.7,0.5-5.5,0.5-8.3c0-39.5-32-71.5-71.5-71.5
	c-18.5,0-35.3,7-48,18.5c-12.7-11.5-29.5-18.5-48-18.5s-35.3,7-48,18.5c-12.7-11.5-29.5-18.5-48-18.5s-35.3,7-48,18.5
	c-12.7-11.5-29.5-18.5-48-18.5c-39.5,0-71.5,32-71.5,71.5c0,5.2,0.6,10.2,1.6,15c-23.2,11.8-39,35.9-39,63.7
	c0,27.2,15.1,50.8,37.4,62.9c0,0.5,0,0.9,0,1.4c0,39.5,32,71.5,71.5,71.5c18.5,0,35.2-7,47.9-18.5c12.7,11.5,29.7,18.5,48.2,18.5
	s35.1-7,47.8-18.5c12.7,11.5,29.8,18.5,48.3,18.5s35.3-7,48-18.5c12.7,11.5,29.5,18.5,48,18.5c37.4,0,68.1-28.7,71.2-65.3
	C2236.9,535.7,2262.3,506.5,2262.3,471.3z"/>
<g>
	<path class="st1" d="M301.1,286c-11.1,0-21.7-2.5-31.1-7c12.2,9.4,27.6,15,44.1,15c18,0,34.5-6.7,47.1-17.7
		c-4.3-2.5-8.4-5.5-12.1-8.8C336.4,279,319.6,286,301.1,286z"/>
	<path class="st1" d="M157.9,17.7c-1.7-1-3.5-1.9-5.3-2.8c1.5,1.1,2.9,2.3,4.3,3.6C157.3,18.3,157.6,18,157.9,17.7z"/>
	<path class="st1" d="M205,286c-18.5,0-34.5-9-47.2-20.5C145.1,277,127.4,286,108.9,286c-11,0-21.4-2.5-30.7-6.9
		c12.1,9.3,27.2,14.9,43.7,14.9c18.5,0,35.2-7,47.9-18.5C182.5,287,199.5,294,218,294c18.1,0,34.3-6.7,46.9-17.7
		c-4.3-2.5-8.4-5.5-12.1-8.8C240.1,279,223.5,286,205,286z"/>
	<path class="st1" d="M468.7,71.5c0,2.8-0.2,5.6-0.5,8.3c4.6,0.8,9.1,2.1,13.4,3.7c0.1-1.3,0.1-2.7,0.1-4.1
		c0-28.5-16.7-53.1-40.8-64.6C457.7,28,468.7,48.5,468.7,71.5z"/>
	<path class="st1" d="M499.5,93.7c16.9,13.1,27.8,33.6,27.8,56.6c0,35.2-25.4,64.5-58.9,70.4c-3.1,36.6-33.8,65.3-71.2,65.3
		c-11,0-21.4-2.5-30.7-6.9c12.1,9.4,27.3,14.9,43.7,14.9c37.4,0,68.1-28.7,71.2-65.3c33.5-5.9,58.9-35.2,58.9-70.4
		C540.3,129.8,523.6,105.2,499.5,93.7z"/>
	<path class="st1" d="M254,17.7c-1.7-1-3.5-1.9-5.3-2.8c1.5,1.1,2.9,2.3,4.3,3.6C253.4,18.3,253.7,18,254,17.7z"/>
	<path class="st1" d="M350.1,17.7c-1.7-1-3.5-1.9-5.3-2.8c1.5,1.1,2.9,2.3,4.3,3.6C349.4,18.3,349.8,18,350.1,17.7z"/>
	<path class="st2" d="M468.4,220.7c33.5-5.9,58.9-35.2,58.9-70.4c0-23-10.9-43.5-27.8-56.6c-5.4-4.2-11.5-7.6-18-10.1
		c-4.3-1.7-8.7-2.9-13.4-3.7c0.3-2.7,0.5-5.5,0.5-8.3c0-23-10.9-43.5-27.8-56.6C428.7,5.6,413.6,0,397.2,0c-18,0-34.5,6.7-47.1,17.7
		c-0.3,0.3-0.6,0.5-0.9,0.8c-1.4-1.3-2.8-2.5-4.3-3.6C332.7,5.6,317.6,0,301.1,0c-18,0-34.5,6.7-47.1,17.7c-0.3,0.3-0.6,0.5-0.9,0.8
		c-1.4-1.3-2.8-2.5-4.3-3.6C236.6,5.6,221.5,0,205,0c-18,0-34.5,6.7-47.1,17.7c-0.3,0.3-0.6,0.5-0.9,0.8c-1.4-1.3-2.8-2.5-4.3-3.6
		C140.6,5.6,125.4,0,108.9,0C69.4,0,37.4,32,37.4,71.5c0,5.2,0.6,10.2,1.6,15C15.9,98.4,0,122.5,0,150.3c0,27.2,15.1,50.8,37.4,62.9
		c0,0.5,0,0.9,0,1.4c0,28.5,16.7,53.1,40.8,64.6c9.3,4.4,19.7,6.9,30.7,6.9c18.5,0,36.2-9,48.9-20.5C170.5,277,186.5,286,205,286
		c18.5,0,35.1-7,47.8-18.5c3.7,3.3,7.7,6.3,12.1,8.8c1.7,1,3.4,1.9,5.1,2.7c9.4,4.5,20,7,31.1,7c18.5,0,35.3-7,48-18.5
		c3.7,3.3,7.7,6.3,12.1,8.8c1.7,1,3.5,1.9,5.3,2.8c9.3,4.4,19.7,6.9,30.7,6.9C434.6,286,465.3,257.3,468.4,220.7z"/>
	<path class="st1" d="M1048.5,406.7c16.9,13.1,27.8,33.6,27.8,56.6c0,35.2-25.4,64.5-58.9,70.4c-3.1,36.6-33.8,65.3-71.2,65.3
		c-11,0-21.4-2.5-30.7-6.9c12.1,9.4,27.3,14.9,43.7,14.9c37.4,0,68.1-28.7,71.2-65.3c33.5-5.9,58.9-35.2,58.9-70.4
		C1089.3,442.8,1072.6,418.2,1048.5,406.7z"/>
	<path class="st1" d="M803,330.7c-1.7-1-3.5-1.9-5.3-2.8c1.5,1.1,2.9,2.3,4.3,3.6C802.4,331.3,802.7,331,803,330.7z"/>
	<path class="st1" d="M899.1,330.7c-1.7-1-3.5-1.9-5.3-2.8c1.5,1.1,2.9,2.3,4.3,3.6C898.4,331.3,898.8,331,899.1,330.7z"/>
	<path class="st1" d="M706.9,330.7c-1.7-1-3.5-1.9-5.3-2.8c1.5,1.1,2.9,2.3,4.3,3.6C706.3,331.3,706.6,331,706.9,330.7z"/>
	<path class="st1" d="M1017.7,384.5c0,2.8-0.2,5.6-0.5,8.3c4.6,0.8,9.1,2.1,13.4,3.7c0.1-1.3,0.1-2.7,0.1-4.1
		c0-28.5-16.7-53.1-40.8-64.6C1006.7,341,1017.7,361.5,1017.7,384.5z"/>
	<path class="st1" d="M850.1,599c-11.1,0-21.7-2.5-31.1-7c12.2,9.4,27.6,15,44.1,15c18,0,34.5-6.7,47.1-17.7
		c-4.3-2.5-8.4-5.5-12.1-8.8C885.4,592,868.6,599,850.1,599z"/>
	<path class="st1" d="M754,599c-18.5,0-34.5-9-47.2-20.5C694.1,590,676.4,599,657.9,599c-11,0-21.4-2.5-30.7-6.9
		c12.1,9.3,27.2,14.9,43.7,14.9c18.5,0,35.2-7,47.9-18.5C731.5,600,748.5,607,767,607c18.1,0,34.3-6.7,46.9-17.7
		c-4.3-2.5-8.4-5.5-12.1-8.8C789.1,592,772.5,599,754,599z"/>
	<path class="st2" d="M1017.4,533.7c33.5-5.9,58.9-35.2,58.9-70.4c0-23-10.9-43.5-27.8-56.6c-5.4-4.2-11.5-7.6-18-10.1
		c-4.3-1.7-8.7-2.9-13.4-3.7c0.3-2.7,0.5-5.5,0.5-8.3c0-23-10.9-43.5-27.8-56.6c-12.1-9.3-27.2-14.9-43.7-14.9
		c-18,0-34.5,6.7-47.1,17.7c-0.3,0.3-0.6,0.5-0.9,0.8c-1.4-1.3-2.8-2.5-4.3-3.6c-12.1-9.4-27.3-14.9-43.7-14.9
		c-18,0-34.5,6.7-47.1,17.7c-0.3,0.3-0.6,0.5-0.9,0.8c-1.4-1.3-2.8-2.5-4.3-3.6c-12.1-9.4-27.3-14.9-43.7-14.9
		c-18,0-34.5,6.7-47.1,17.7c-0.3,0.3-0.6,0.5-0.9,0.8c-1.4-1.3-2.8-2.5-4.3-3.6c-12.1-9.4-27.3-14.9-43.7-14.9
		c-39.5,0-71.5,32-71.5,71.5c0,5.2,0.6,10.2,1.6,15c-23.2,11.8-39,35.9-39,63.7c0,27.2,15.1,50.8,37.4,62.9c0,0.5,0,0.9,0,1.4
		c0,28.5,16.7,53.1,40.8,64.6c9.3,4.4,19.7,6.9,30.7,6.9c18.5,0,36.2-9,48.9-20.5C719.5,590,735.5,599,754,599
		c18.5,0,35.1-7,47.8-18.5c3.7,3.3,7.7,6.3,12.1,8.8c1.7,1,3.4,1.9,5.1,2.7c9.4,4.5,20,7,31.1,7c18.5,0,35.3-7,48-18.5
		c3.7,3.3,7.7,6.3,12.1,8.8c1.7,1,3.5,1.9,5.3,2.8c9.3,4.4,19.7,6.9,30.7,6.9C983.6,599,1014.3,570.3,1017.4,533.7z"/>
	<path class="st1" d="M1474.1,286c-11.1,0-21.7-2.5-31.1-7c12.2,9.4,27.6,15,44.1,15c18,0,34.5-6.7,47.1-17.7
		c-4.3-2.5-8.4-5.5-12.1-8.8C1509.4,279,1492.6,286,1474.1,286z"/>
	<path class="st1" d="M1672.5,93.7c16.9,13.1,27.8,33.6,27.8,56.6c0,35.2-25.4,64.5-58.9,70.4c-3.1,36.6-33.8,65.3-71.2,65.3
		c-11,0-21.4-2.5-30.7-6.9c12.1,9.4,27.3,14.9,43.7,14.9c37.4,0,68.1-28.7,71.2-65.3c33.5-5.9,58.9-35.2,58.9-70.4
		C1713.3,129.8,1696.6,105.2,1672.5,93.7z"/>
	<path class="st1" d="M1378,286c-18.5,0-34.5-9-47.2-20.5c-12.7,11.5-30.4,20.5-48.9,20.5c-11,0-21.4-2.5-30.7-6.9
		c12.1,9.3,27.2,14.9,43.7,14.9c18.5,0,35.2-7,47.9-18.5c12.7,11.5,29.7,18.5,48.2,18.5c18.1,0,34.3-6.7,46.9-17.7
		c-4.3-2.5-8.4-5.5-12.1-8.8C1413.1,279,1396.5,286,1378,286z"/>
	<path class="st1" d="M1330.9,17.7c-1.7-1-3.5-1.9-5.3-2.8c1.5,1.1,2.9,2.3,4.3,3.6C1330.3,18.3,1330.6,18,1330.9,17.7z"/>
	<path class="st1" d="M1641.7,71.5c0,2.8-0.2,5.6-0.5,8.3c4.6,0.8,9.1,2.1,13.4,3.7c0.1-1.3,0.1-2.7,0.1-4.1
		c0-28.5-16.7-53.1-40.8-64.6C1630.7,28,1641.7,48.5,1641.7,71.5z"/>
	<path class="st1" d="M1427,17.7c-1.7-1-3.5-1.9-5.3-2.8c1.5,1.1,2.9,2.3,4.3,3.6C1426.4,18.3,1426.7,18,1427,17.7z"/>
	<path class="st1" d="M1523.1,17.7c-1.7-1-3.5-1.9-5.3-2.8c1.5,1.1,2.9,2.3,4.3,3.6C1522.4,18.3,1522.8,18,1523.1,17.7z"/>
	<path class="st2" d="M1641.4,220.7c33.5-5.9,58.9-35.2,58.9-70.4c0-23-10.9-43.5-27.8-56.6c-5.4-4.2-11.5-7.6-18-10.1
		c-4.3-1.7-8.7-2.9-13.4-3.7c0.3-2.7,0.5-5.5,0.5-8.3c0-23-10.9-43.5-27.8-56.6C1601.7,5.6,1586.6,0,1570.2,0
		c-18,0-34.5,6.7-47.1,17.7c-0.3,0.3-0.6,0.5-0.9,0.8c-1.4-1.3-2.8-2.5-4.3-3.6C1505.7,5.6,1490.6,0,1474.1,0
		c-18,0-34.5,6.7-47.1,17.7c-0.3,0.3-0.6,0.5-0.9,0.8c-1.4-1.3-2.8-2.5-4.3-3.6C1409.6,5.6,1394.5,0,1378,0
		c-18,0-34.5,6.7-47.1,17.7c-0.3,0.3-0.6,0.5-0.9,0.8c-1.4-1.3-2.8-2.5-4.3-3.6C1313.6,5.6,1298.4,0,1281.9,0
		c-39.5,0-71.5,32-71.5,71.5c0,5.2,0.6,10.2,1.6,15c-23.2,11.8-39,35.9-39,63.7c0,27.2,15.1,50.8,37.4,62.9c0,0.5,0,0.9,0,1.4
		c0,28.5,16.7,53.1,40.8,64.6c9.3,4.4,19.7,6.9,30.7,6.9c18.5,0,36.2-9,48.9-20.5c12.7,11.5,28.7,20.5,47.2,20.5s35.1-7,47.8-18.5
		c3.7,3.3,7.7,6.3,12.1,8.8c1.7,1,3.4,1.9,5.1,2.7c9.4,4.5,20,7,31.1,7c18.5,0,35.3-7,48-18.5c3.7,3.3,7.7,6.3,12.1,8.8
		c1.7,1,3.5,1.9,5.3,2.8c9.3,4.4,19.7,6.9,30.7,6.9C1607.6,286,1638.3,257.3,1641.4,220.7z"/>
	<path class="st2" d="M2190.2,392.8c0.3-2.7,0.5-5.5,0.5-8.3c0-39.5-32-71.5-71.5-71.5c-18.5,0-35.3,7-48,18.5
		c-12.7-11.5-29.5-18.5-48-18.5s-35.3,7-48,18.5c-12.7-11.5-29.5-18.5-48-18.5s-35.3,7-48,18.5c-12.7-11.5-29.5-18.5-48-18.5
		c-39.5,0-71.5,32-71.5,71.5c0,5.2,0.6,10.2,1.6,15c-23.2,11.8-39,35.9-39,63.7c0,27.2,15.1,50.8,37.4,62.9c0,0.5,0,0.9,0,1.4
		c0,39.5,32,71.5,71.5,71.5c18.5,0,36.2-9,48.9-20.5c12.7,11.5,28.7,20.5,47.2,20.5s35.1-7,47.8-18.5c12.7,11.5,29.8,18.5,48.3,18.5
		s35.3-7,48-18.5c12.7,11.5,29.5,18.5,48,18.5c37.4,0,68.1-28.7,71.2-65.3c33.5-5.9,58.9-35.2,58.9-70.4
		C2249.3,428,2223.8,398.7,2190.2,392.8z"/>
</g>
</svg>
