<?xml version="1.0" encoding="utf-8"?>
<!-- Generator: Adobe Illustrator 23.1.0, SVG Export Plug-In . SVG Version: 6.00 Build 0)  -->
<svg version="1.1" id="Layer_1" xmlns="http://www.w3.org/2000/svg" xmlns:xlink="http://www.w3.org/1999/xlink" x="0px" y="0px"
	 viewBox="0 0 2560 1600" style="enable-background:new 0 0 2560 1600;" xml:space="preserve">
<style type="text/css">
	.st0{fill:#FFFFFF;}
</style>
<g>
	<path class="st0" d="M163.9,168.8c-7.6,7.6-20,7.6-27.6,0L28.5,61c-7.6-7.6-7.6-20,0-27.6s20-7.6,27.6,0l107.8,107.9
		C171.5,148.9,171.5,161.3,163.9,168.8z"/>
</g>
<g>
	<path class="st0" d="M163.9,390c-7.6,7.6-20,7.6-27.6,0L28.5,282.1c-7.6-7.6-7.6-20,0-27.6c7.6-7.6,20-7.6,27.6,0l107.8,107.9
		C171.5,370,171.5,382.4,163.9,390z"/>
</g>
<g>
	<path class="st0" d="M163.9,611.2c-7.6,7.6-20,7.6-27.6,0L28.5,503.3c-7.6-7.6-7.6-20,0-27.6s20-7.6,27.6,0l107.8,107.9
		C171.5,591.2,171.5,603.5,163.9,611.2z"/>
</g>
<g>
	<path class="st0" d="M163.9,832.3c-7.6,7.6-20,7.6-27.6,0L28.5,724.4c-7.6-7.6-7.6-20,0-27.6s20-7.6,27.6,0l107.8,107.9
		C171.5,812.3,171.5,824.7,163.9,832.3z"/>
</g>
<g>
	<path class="st0" d="M163.9,1053.3c-7.6,7.6-20,7.6-27.6,0L28.5,945.5c-7.6-7.6-7.6-20,0-27.6s20-7.6,27.6,0l107.8,107.9
		C171.5,1033.3,171.5,1045.7,163.9,1053.3z"/>
</g>
<g>
	<path class="st0" d="M163.9,1274.5c-7.6,7.6-20,7.6-27.6,0L28.3,1166.6c-7.6-7.6-7.6-20,0-27.6s20-7.6,27.6,0l107.9,107.9
		C171.5,1254.5,171.5,1266.8,163.9,1274.5z"/>
</g>
<g>
	<path class="st0" d="M163.9,1495.6c-7.6,7.6-20,7.6-27.6,0L28.4,1387.7c-7.6-7.6-7.6-20,0-27.6s20-7.6,27.6,0L163.9,1468
		C171.5,1475.6,171.5,1488,163.9,1495.6z"/>
</g>
<g>
	<path class="st0" d="M457.7,168.8c-7.6,7.6-20,7.6-27.6,0L322.3,61c-7.6-7.6-7.6-20,0-27.6s20-7.6,27.6,0l107.8,107.9
		C465.3,148.9,465.3,161.3,457.7,168.8z"/>
</g>
<g>
	<path class="st0" d="M457.7,390c-7.6,7.6-20,7.6-27.6,0L322.3,282.1c-7.6-7.6-7.6-20,0-27.6c7.6-7.6,20-7.6,27.6,0l107.8,107.9
		C465.3,370,465.3,382.4,457.7,390z"/>
</g>
<g>
	<path class="st0" d="M457.7,611.2c-7.6,7.6-20,7.6-27.6,0L322.3,503.3c-7.6-7.6-7.6-20,0-27.6s20-7.6,27.6,0l107.8,107.9
		C465.3,591.2,465.3,603.5,457.7,611.2z"/>
</g>
<g>
	<path class="st0" d="M457.7,832.3c-7.6,7.6-20,7.6-27.6,0L322.3,724.4c-7.6-7.6-7.6-20,0-27.6s20-7.6,27.6,0l107.8,107.9
		C465.3,812.3,465.3,824.7,457.7,832.3z"/>
</g>
<g>
	<path class="st0" d="M457.7,1053.3c-7.6,7.6-20,7.6-27.6,0L322.3,945.5c-7.6-7.6-7.6-20,0-27.6s20-7.6,27.6,0l107.8,107.9
		C465.3,1033.3,465.3,1045.7,457.7,1053.3z"/>
</g>
<g>
	<path class="st0" d="M457.7,1274.5c-7.6,7.6-20,7.6-27.6,0l-107.9-107.9c-7.6-7.6-7.6-20,0-27.6c7.6-7.6,20-7.6,27.6,0l107.9,107.9
		C465.3,1254.5,465.3,1266.8,457.7,1274.5z"/>
</g>
<g>
	<path class="st0" d="M457.7,1495.6c-7.6,7.6-20,7.6-27.6,0l-107.8-107.9c-7.6-7.6-7.6-20,0-27.6c7.6-7.6,20-7.6,27.6,0L457.7,1468
		C465.3,1475.6,465.3,1488,457.7,1495.6z"/>
</g>
<g>
	<path class="st0" d="M751.5,168.8c-7.6,7.6-20,7.6-27.6,0L616.1,61c-7.6-7.6-7.6-20,0-27.6s20-7.6,27.6,0l107.8,107.9
		C759.1,148.9,759.1,161.3,751.5,168.8z"/>
</g>
<g>
	<path class="st0" d="M751.5,390c-7.6,7.6-20,7.6-27.6,0L616.1,282.1c-7.6-7.6-7.6-20,0-27.6c7.6-7.6,20-7.6,27.6,0l107.8,107.9
		C759.1,370,759.1,382.4,751.5,390z"/>
</g>
<g>
	<path class="st0" d="M751.5,611.2c-7.6,7.6-20,7.6-27.6,0L616.1,503.3c-7.6-7.6-7.6-20,0-27.6s20-7.6,27.6,0l107.8,107.9
		C759.1,591.2,759.1,603.5,751.5,611.2z"/>
</g>
<g>
	<path class="st0" d="M751.5,832.3c-7.6,7.6-20,7.6-27.6,0L616.1,724.4c-7.6-7.6-7.6-20,0-27.6s20-7.6,27.6,0l107.8,107.9
		C759.1,812.3,759.1,824.7,751.5,832.3z"/>
</g>
<g>
	<path class="st0" d="M751.5,1053.3c-7.6,7.6-20,7.6-27.6,0L616.1,945.5c-7.6-7.6-7.6-20,0-27.6s20-7.6,27.6,0l107.8,107.9
		C759.1,1033.3,759.1,1045.7,751.5,1053.3z"/>
</g>
<g>
	<path class="st0" d="M751.5,1274.5c-7.6,7.6-20,7.6-27.6,0L616,1166.6c-7.6-7.6-7.6-20,0-27.6c7.6-7.6,20-7.6,27.6,0l107.9,107.9
		C759.1,1254.5,759.1,1266.8,751.5,1274.5z"/>
</g>
<g>
	<path class="st0" d="M751.5,1495.6c-7.6,7.6-20,7.6-27.6,0l-107.8-107.9c-7.6-7.6-7.6-20,0-27.6c7.6-7.6,20-7.6,27.6,0L751.5,1468
		C759.1,1475.6,759.1,1488,751.5,1495.6z"/>
</g>
<g>
	<path class="st0" d="M1045.2,168.8c-7.6,7.6-20,7.6-27.6,0L909.9,61c-7.6-7.6-7.6-20,0-27.6c7.6-7.6,20-7.6,27.6,0l107.8,107.9
		C1052.9,148.9,1052.9,161.3,1045.2,168.8z"/>
</g>
<g>
	<path class="st0" d="M1045.2,390c-7.6,7.6-20,7.6-27.6,0L909.9,282.1c-7.6-7.6-7.6-20,0-27.6c7.6-7.6,20-7.6,27.6,0l107.8,107.9
		C1052.9,370,1052.9,382.4,1045.2,390z"/>
</g>
<g>
	<path class="st0" d="M1045.2,611.2c-7.6,7.6-20,7.6-27.6,0L909.9,503.3c-7.6-7.6-7.6-20,0-27.6c7.6-7.6,20-7.6,27.6,0l107.8,107.9
		C1052.9,591.2,1052.9,603.5,1045.2,611.2z"/>
</g>
<g>
	<path class="st0" d="M1045.2,832.3c-7.6,7.6-20,7.6-27.6,0L909.9,724.4c-7.6-7.6-7.6-20,0-27.6c7.6-7.6,20-7.6,27.6,0l107.8,107.9
		C1052.9,812.3,1052.9,824.7,1045.2,832.3z"/>
</g>
<g>
	<path class="st0" d="M1045.2,1053.3c-7.6,7.6-20,7.6-27.6,0L909.9,945.5c-7.6-7.6-7.6-20,0-27.6c7.6-7.6,20-7.6,27.6,0l107.8,107.9
		C1052.9,1033.3,1052.9,1045.7,1045.2,1053.3z"/>
</g>
<g>
	<path class="st0" d="M1045.2,1274.5c-7.6,7.6-20,7.6-27.6,0l-107.9-107.9c-7.6-7.6-7.6-20,0-27.6c7.6-7.6,20-7.6,27.6,0
		l107.9,107.9C1052.9,1254.5,1052.9,1266.8,1045.2,1274.5z"/>
</g>
<g>
	<path class="st0" d="M1045.2,1495.6c-7.6,7.6-20,7.6-27.6,0l-107.8-107.9c-7.6-7.6-7.6-20,0-27.6c7.6-7.6,20-7.6,27.6,0
		l107.8,107.9C1052.9,1475.6,1052.9,1488,1045.2,1495.6z"/>
</g>
<g>
	<path class="st0" d="M1339.1,168.8c-7.6,7.6-20,7.6-27.6,0L1203.7,61c-7.6-7.6-7.6-20,0-27.6c7.6-7.6,20-7.6,27.6,0l107.8,107.9
		C1346.7,148.9,1346.7,161.3,1339.1,168.8z"/>
</g>
<g>
	<path class="st0" d="M1339.1,390c-7.6,7.6-20,7.6-27.6,0l-107.8-107.9c-7.6-7.6-7.6-20,0-27.6c7.6-7.6,20-7.6,27.6,0l107.8,107.9
		C1346.7,370,1346.7,382.4,1339.1,390z"/>
</g>
<g>
	<path class="st0" d="M1339.1,611.2c-7.6,7.6-20,7.6-27.6,0l-107.8-107.9c-7.6-7.6-7.6-20,0-27.6c7.6-7.6,20-7.6,27.6,0l107.8,107.9
		C1346.7,591.2,1346.7,603.5,1339.1,611.2z"/>
</g>
<g>
	<path class="st0" d="M1339.1,832.3c-7.6,7.6-20,7.6-27.6,0l-107.8-107.9c-7.6-7.6-7.6-20,0-27.6c7.6-7.6,20-7.6,27.6,0l107.8,107.9
		C1346.7,812.3,1346.7,824.7,1339.1,832.3z"/>
</g>
<g>
	<path class="st0" d="M1339.1,1053.3c-7.6,7.6-20,7.6-27.6,0l-107.8-107.8c-7.6-7.6-7.6-20,0-27.6c7.6-7.6,20-7.6,27.6,0
		l107.8,107.9C1346.7,1033.3,1346.7,1045.7,1339.1,1053.3z"/>
</g>
<g>
	<path class="st0" d="M1339.1,1274.5c-7.6,7.6-20,7.6-27.6,0l-107.9-107.9c-7.6-7.6-7.6-20,0-27.6s20-7.6,27.6,0l107.9,107.9
		C1346.7,1254.5,1346.7,1266.8,1339.1,1274.5z"/>
</g>
<g>
	<path class="st0" d="M1339.1,1495.6c-7.6,7.6-20,7.6-27.6,0l-107.8-107.9c-7.6-7.6-7.6-20,0-27.6c7.6-7.6,20-7.6,27.6,0
		l107.8,107.9C1346.7,1475.6,1346.7,1488,1339.1,1495.6z"/>
</g>
<g>
	<path class="st0" d="M1632.9,168.8c-7.6,7.6-20,7.6-27.6,0L1497.5,61c-7.6-7.6-7.6-20,0-27.6s20-7.6,27.6,0l107.8,107.9
		C1640.5,148.9,1640.5,161.3,1632.9,168.8z"/>
</g>
<g>
	<path class="st0" d="M1632.9,390c-7.6,7.6-20,7.6-27.6,0l-107.8-107.9c-7.6-7.6-7.6-20,0-27.6c7.6-7.6,20-7.6,27.6,0l107.8,107.9
		C1640.5,370,1640.5,382.4,1632.9,390z"/>
</g>
<g>
	<path class="st0" d="M1632.9,611.2c-7.6,7.6-20,7.6-27.6,0l-107.8-107.9c-7.6-7.6-7.6-20,0-27.6s20-7.6,27.6,0l107.8,107.9
		C1640.5,591.2,1640.5,603.5,1632.9,611.2z"/>
</g>
<g>
	<path class="st0" d="M1632.9,832.3c-7.6,7.6-20,7.6-27.6,0l-107.8-107.9c-7.6-7.6-7.6-20,0-27.6s20-7.6,27.6,0l107.8,107.9
		C1640.5,812.3,1640.5,824.7,1632.9,832.3z"/>
</g>
<g>
	<path class="st0" d="M1632.9,1053.3c-7.6,7.6-20,7.6-27.6,0l-107.8-107.8c-7.6-7.6-7.6-20,0-27.6s20-7.6,27.6,0l107.8,107.9
		C1640.5,1033.3,1640.5,1045.7,1632.9,1053.3z"/>
</g>
<g>
	<path class="st0" d="M1632.9,1274.5c-7.6,7.6-20,7.6-27.6,0l-107.9-107.9c-7.6-7.6-7.6-20,0-27.6s20-7.6,27.6,0l107.9,107.9
		C1640.5,1254.5,1640.5,1266.8,1632.9,1274.5z"/>
</g>
<g>
	<path class="st0" d="M1632.9,1495.6c-7.6,7.6-20,7.6-27.6,0l-107.8-107.9c-7.6-7.6-7.6-20,0-27.6s20-7.6,27.6,0l107.8,107.9
		C1640.5,1475.6,1640.5,1488,1632.9,1495.6z"/>
</g>
<g>
	<path class="st0" d="M1926.7,168.8c-7.6,7.6-20,7.6-27.6,0L1791.3,61c-7.6-7.6-7.6-20,0-27.6s20-7.6,27.6,0l107.8,107.9
		C1934.3,148.9,1934.3,161.3,1926.7,168.8z"/>
</g>
<g>
	<path class="st0" d="M1926.7,390c-7.6,7.6-20,7.6-27.6,0l-107.8-107.9c-7.6-7.6-7.6-20,0-27.6c7.6-7.6,20-7.6,27.6,0l107.8,107.9
		C1934.3,370,1934.3,382.4,1926.7,390z"/>
</g>
<g>
	<path class="st0" d="M1926.7,611.2c-7.6,7.6-20,7.6-27.6,0l-107.8-107.9c-7.6-7.6-7.6-20,0-27.6s20-7.6,27.6,0l107.8,107.9
		C1934.3,591.2,1934.3,603.5,1926.7,611.2z"/>
</g>
<g>
	<path class="st0" d="M1926.7,832.3c-7.6,7.6-20,7.6-27.6,0l-107.8-107.9c-7.6-7.6-7.6-20,0-27.6s20-7.6,27.6,0l107.8,107.9
		C1934.3,812.3,1934.3,824.7,1926.7,832.3z"/>
</g>
<g>
	<path class="st0" d="M1926.7,1053.3c-7.6,7.6-20,7.6-27.6,0l-107.8-107.8c-7.6-7.6-7.6-20,0-27.6s20-7.6,27.6,0l107.8,107.9
		C1934.3,1033.3,1934.3,1045.7,1926.7,1053.3z"/>
</g>
<g>
	<path class="st0" d="M1926.7,1274.5c-7.6,7.6-20,7.6-27.6,0l-107.9-107.9c-7.6-7.6-7.6-20,0-27.6c7.6-7.6,20-7.6,27.6,0
		l107.9,107.9C1934.3,1254.5,1934.3,1266.8,1926.7,1274.5z"/>
</g>
<g>
	<path class="st0" d="M1926.7,1495.6c-7.6,7.6-20,7.6-27.6,0l-107.8-107.9c-7.6-7.6-7.6-20,0-27.6s20-7.6,27.6,0l107.8,107.9
		C1934.3,1475.6,1934.3,1488,1926.7,1495.6z"/>
</g>
<g>
	<path class="st0" d="M2220.5,168.8c-7.6,7.6-20,7.6-27.6,0L2085.1,61c-7.6-7.6-7.6-20,0-27.6c7.6-7.6,20-7.6,27.6,0l107.8,107.9
		C2228.1,148.9,2228.1,161.3,2220.5,168.8z"/>
</g>
<g>
	<path class="st0" d="M2220.5,390c-7.6,7.6-20,7.6-27.6,0l-107.8-107.9c-7.6-7.6-7.6-20,0-27.6c7.6-7.6,20-7.6,27.6,0l107.8,107.9
		C2228.1,370,2228.1,382.4,2220.5,390z"/>
</g>
<g>
	<path class="st0" d="M2220.5,611.2c-7.6,7.6-20,7.6-27.6,0l-107.8-107.9c-7.6-7.6-7.6-20,0-27.6c7.6-7.6,20-7.6,27.6,0l107.8,107.9
		C2228.1,591.2,2228.1,603.5,2220.5,611.2z"/>
</g>
<g>
	<path class="st0" d="M2220.5,832.3c-7.6,7.6-20,7.6-27.6,0l-107.8-107.9c-7.6-7.6-7.6-20,0-27.6c7.6-7.6,20-7.6,27.6,0l107.8,107.9
		C2228.1,812.3,2228.1,824.7,2220.5,832.3z"/>
</g>
<g>
	<path class="st0" d="M2220.5,1053.3c-7.6,7.6-20,7.6-27.6,0l-107.8-107.8c-7.6-7.6-7.6-20,0-27.6c7.6-7.6,20-7.6,27.6,0
		l107.8,107.9C2228.1,1033.3,2228.1,1045.7,2220.5,1053.3z"/>
</g>
<g>
	<path class="st0" d="M2220.5,1274.5c-7.6,7.6-20,7.6-27.6,0L2085,1166.6c-7.6-7.6-7.6-20,0-27.6c7.6-7.6,20-7.6,27.6,0l107.9,107.9
		C2228.1,1254.5,2228.1,1266.8,2220.5,1274.5z"/>
</g>
<g>
	<path class="st0" d="M2220.5,1495.6c-7.6,7.6-20,7.6-27.6,0l-107.8-107.9c-7.6-7.6-7.6-20,0-27.6c7.6-7.6,20-7.6,27.6,0
		l107.8,107.9C2228.1,1475.6,2228.1,1488,2220.5,1495.6z"/>
</g>
<g>
	<path class="st0" d="M2514.3,168.8c-7.6,7.6-20,7.6-27.6,0L2378.9,61c-7.6-7.6-7.6-20,0-27.6c7.6-7.6,20-7.6,27.6,0l107.8,107.9
		C2521.9,148.9,2521.9,161.3,2514.3,168.8z"/>
</g>
<g>
	<path class="st0" d="M2514.3,390c-7.6,7.6-20,7.6-27.6,0l-107.8-107.9c-7.6-7.6-7.6-20,0-27.6c7.6-7.6,20-7.6,27.6,0l107.8,107.9
		C2521.9,370,2521.9,382.4,2514.3,390z"/>
</g>
<g>
	<path class="st0" d="M2514.3,611.2c-7.6,7.6-20,7.6-27.6,0l-107.8-107.9c-7.6-7.6-7.6-20,0-27.6c7.6-7.6,20-7.6,27.6,0l107.8,107.9
		C2521.9,591.2,2521.9,603.5,2514.3,611.2z"/>
</g>
<g>
	<path class="st0" d="M2514.3,832.3c-7.6,7.6-20,7.6-27.6,0l-107.8-107.9c-7.6-7.6-7.6-20,0-27.6c7.6-7.6,20-7.6,27.6,0l107.8,107.9
		C2521.9,812.3,2521.9,824.7,2514.3,832.3z"/>
</g>
<g>
	<path class="st0" d="M2514.3,1053.3c-7.6,7.6-20,7.6-27.6,0l-107.8-107.8c-7.6-7.6-7.6-20,0-27.6c7.6-7.6,20-7.6,27.6,0
		l107.8,107.9C2521.9,1033.3,2521.9,1045.7,2514.3,1053.3z"/>
</g>
<g>
	<path class="st0" d="M2514.3,1274.5c-7.6,7.6-20,7.6-27.6,0l-107.9-107.9c-7.6-7.6-7.6-20,0-27.6c7.6-7.6,20-7.6,27.6,0
		l107.9,107.9C2521.9,1254.5,2521.9,1266.8,2514.3,1274.5z"/>
</g>
<g>
	<path class="st0" d="M2514.3,1495.6c-7.6,7.6-20,7.6-27.6,0l-107.8-107.9c-7.6-7.6-7.6-20,0-27.6c7.6-7.6,20-7.6,27.6,0
		l107.8,107.9C2521.9,1475.6,2521.9,1488,2514.3,1495.6z"/>
</g>
</svg>
