<?xml version="1.0" encoding="utf-8"?>
<!-- Generator: Adobe Illustrator 23.1.0, SVG Export Plug-In . SVG Version: 6.00 Build 0)  -->
<svg version="1.1" id="Layer_1" xmlns="http://www.w3.org/2000/svg" xmlns:xlink="http://www.w3.org/1999/xlink" x="0px" y="0px"
	 viewBox="0 0 596.4 215.8" style="enable-background:new 0 0 596.4 215.8;" xml:space="preserve">
<style type="text/css">
	.st0{fill:#005C79;}
	.st1{fill:#337894;}
	.st2{fill:none;}
	.st3{fill:#80C5E8;}
	.st4{fill:#D7F5F5;}
</style>
<path class="st0" d="M596.7,130.5l0.1-16.2l-0.2-0.1l-0.2-0.1V66V20.4C582.6,10,565,4.9,549.5,9c-16,4.2-29.5,14.9-42.8,24.7
	c-13.3,9.8-28,19.3-44.5,20.5c-19,1.4-37.3-8.5-56.4-8.9c-21.4-0.5-41.9,11-63,11.7c-0.1,0-0.2,0-0.2,0c-2.8,0.1-5.7,0-8.5-0.4
	c-16.2-2.1-29.3-11.5-42.1-22.2c0,0,0,0,0,0c-15-12.6-29.6-26.9-48-32.7c-2.2-0.7-4.5-1.3-6.7-1.7c-8.3-1.6-16.7-1.5-25.1,0
	c-21.4,3.7-42.5,15.9-61.1,28.2C133.1,40,114.1,52.6,94,58.9c-0.2,0.1-0.4,0.1-0.5,0.2c-11,3.4-22.4,4.9-34.1,3.1
	c-8.2-1.2-17.9-8-27.5-16.2c-0.1-0.1-0.2-0.1-0.2-0.2C20.3,36.2,8.6,26.2,0,20.4v41v47.8v22.6v45.3c3,22.1,5.2,37.3,5.2,37.3H6
	c0,0.1,0,0.1,0,0.2c0.1,0.5,0.1,0.8,0.1,1c0,0.1,0,0.1,0,0.1h314.2c0,0,0-0.1,0.1-0.1c0.2-0.3,0.3-0.6,0.5-1c0-0.1,0.1-0.1,0.1-0.2
	h226.2h46.6h0.3h2.1h0.1l0.1-37.9l-0.1,17.8v-64.1c0.1,0,0.1,0.1,0.2,0.1L596.7,130.5z"/>
<path class="st1" d="M596.6,114.3l0,7.8v8.4c-0.1,0-0.1-0.1-0.2-0.1v64.1l0.1-17.8l-0.1,37.9H321.1c0,0.1-0.1,0.1-0.1,0.2
	c-0.2,0.4-0.4,0.7-0.5,1c0,0,0,0.1,0,0.1H-0.7v-1.3H0v-153C7.9,53.1,19.3,49.4,30.9,46c0.2-0.1,0.5-0.1,0.8-0.2
	c7.5-2,15.4-2.7,23.1-1.5c13.6,2.1,25.8,8.9,38.3,14.6c0.1,0.1,0.2,0.1,0.4,0.2c5.2,2.4,10.5,4.6,15.9,6.2
	c35.5,10.6,73-4.4,107.9-17c23.4-8.5,49.4-15.8,73.7-14c0.3,0,0.6,0,0.9,0.1c11.6,1,22.7,4,32.9,10c0.9,0.5,1.9,1.1,2.8,1.7
	c5.2,3.1,10.1,7,15,10.9c0.4,0.3,0.8,0.7,1.2,1c5.1,4.1,10.1,8.2,15.4,11.6c2.6,1.6,5.3,3,8.1,4.1c0.2,0.1,0.5,0.2,0.7,0.3h0
	c3.7,1.4,7.6,2.2,11.8,2.4c2.7,0.1,5.4-0.2,8.1-0.6c0,0,0,0,0,0c0.2,0,0.4-0.1,0.6-0.1c11.1-2,21.8-7.7,33.2-8.4
	c17.9-1.1,33.9,10,50.4,17c3.3,1.4,6.7,2.6,10.2,3.6c0,0,0,0,0,0c13,3.7,27.3,5,41.5,4c0,0,0,0,0,0c2.5-0.2,4.9-0.4,7.4-0.8
	c21.9-2.8,57.2-18,65.1-30.1L596.6,114.3L596.6,114.3z"/>
<title>waves</title>
<path class="st0" d="M463.8,55.3L463.8,55.3z"/>
<path class="st1" d="M594.3,66.9l-0.2,56.4v8.4l-0.2,84L594.3,66.9z"/>
<path class="st2" d="M594.2,131.8C594.1,131.8,594.2,131.8,594.2,131.8v84"/>
<path class="st3" d="M596.7,130.5l0.1-16.2l-0.2-0.1l-0.2-0.1l-2.2-0.7l0,0l-33.8-10.4c-14.7-4.6-26.3-8.5-36.4-11.2c0,0,0,0,0,0
	c-15.2-4.1-27.2-5.8-41.6-4c-3.5,0.4-7.2,1.1-11,2c-9,2.1-17.9,5.2-26.8,8.1c-13.2,4.3-26.4,8.1-40.2,7.2
	c-21.7-1.4-40.7-14-59.5-24.9c-0.1-0.1-0.2-0.1-0.4-0.2c-18.7-10.8-40.4-20.4-61.2-15.1c-18.1,4.5-31.6,19-47.4,28.8
	c-4,2.5-8.1,4.7-12.5,6.3c-22.9,8.6-48.6,1.3-70.9-8.6c-2.8-1.2-5.6-2.5-8.4-3.8c-19.5-9.1-38.9-19.2-60-21.8
	c-32-3.8-66.1,16.3-84,43.4v22.6v45.3v37.3h5.2H6h315.1h226.2v0.1l46.6-0.1h0.3h2.1l0.1-20v-64.1c0.1,0,0.1,0.1,0.2,0.1L596.7,130.5
	z"/>
<path class="st2" d="M596.7,130.5c0,0-0.1-0.1-0.1-0.1"/>
<path class="st4" d="M597,214.5v0.2H-0.7l0-0.2H0v-82.6c2.5,1.2,5.6,2.6,5.7,2.6c23.4,12.6,52.7-25.1,77.5-30.8
	c17.5-4,27.7,7.2,44.1,0c3-1.3,9-8.8,16.7-16c4.3-4,9.1-7.9,14.3-10.6c20.3-10.6,34.6-11.3,54.9-0.5c8.3,4.4,15.3,10.9,22.6,17.2
	c0.1,0.1,0.2,0.1,0.2,0.2c9,7.9,18.1,15.5,29.7,18.1c16.5,3.7,33.4-4,47.8-13.1c10.2-6.5,20.1-13.8,30.9-18.9c0,0,0,0,0,0
	c4.4-2.1,9-3.7,13.8-4.8c3.2-0.7,6.3-1.1,9.5-1.3c0.1,0,0.2,0,0.3,0h0c6.7-0.3,13.3,0.4,19.9,1.8c0,0,0,0,0,0l1,0.2
	c9.2,2.1,18.4,5.5,27,9.3c9.5,4.2,18.9,8.8,28.6,12.7c0.2,0.1,0.4,0.2,0.5,0.2c8.6,3.4,17.4,6.3,26.6,7.7
	c18.3,2.8,36.9-0.5,55.3,0.6c17.5,0.8,49.3,12.2,67.2,22.5c0,0,0,0,0,0c0.8,0.5,1.5,0.9,2.3,1.3v64.1l0.1-17.8l-0.1,37.9H597z"/>
</svg>
